<mxfile host="app.diagrams.net" agent="Mozilla/5.0 (Windows NT 10.0; Win64; x64) AppleWebKit/537.36 (KHTML, like Gecko) Chrome/132.0.0.0 Safari/537.36" version="26.0.11">
  <diagram id="C5RBs43oDa-KdzZeNtuy" name="Page-1">
    <mxGraphModel dx="1877" dy="557" grid="1" gridSize="10" guides="1" tooltips="1" connect="1" arrows="1" fold="1" page="1" pageScale="1" pageWidth="827" pageHeight="1169" math="0" shadow="0">
      <root>
        <mxCell id="WIyWlLk6GJQsqaUBKTNV-0" />
        <mxCell id="WIyWlLk6GJQsqaUBKTNV-1" parent="WIyWlLk6GJQsqaUBKTNV-0" />
        <mxCell id="WIyWlLk6GJQsqaUBKTNV-3" value="Aluno" style="rounded=1;whiteSpace=wrap;html=1;fontSize=12;glass=0;strokeWidth=1;shadow=0;" parent="WIyWlLk6GJQsqaUBKTNV-1" vertex="1">
          <mxGeometry x="90" y="130" width="120" height="40" as="geometry" />
        </mxCell>
        <mxCell id="qN2a7-wlCZaR_5KQ552V-1" value="Disciplina" style="rounded=1;whiteSpace=wrap;html=1;fontSize=12;glass=0;strokeWidth=1;shadow=0;" vertex="1" parent="WIyWlLk6GJQsqaUBKTNV-1">
          <mxGeometry x="560" y="330" width="120" height="40" as="geometry" />
        </mxCell>
        <mxCell id="qN2a7-wlCZaR_5KQ552V-2" value="Curso" style="rounded=1;whiteSpace=wrap;html=1;fontSize=12;glass=0;strokeWidth=1;shadow=0;" vertex="1" parent="WIyWlLk6GJQsqaUBKTNV-1">
          <mxGeometry x="560" y="130" width="120" height="40" as="geometry" />
        </mxCell>
        <mxCell id="qN2a7-wlCZaR_5KQ552V-3" value="aluno_id" style="ellipse;whiteSpace=wrap;html=1;" vertex="1" parent="WIyWlLk6GJQsqaUBKTNV-1">
          <mxGeometry x="-60" y="160" width="70" height="50" as="geometry" />
        </mxCell>
        <mxCell id="qN2a7-wlCZaR_5KQ552V-8" value="" style="endArrow=none;html=1;rounded=0;" edge="1" parent="WIyWlLk6GJQsqaUBKTNV-1" source="qN2a7-wlCZaR_5KQ552V-3" target="WIyWlLk6GJQsqaUBKTNV-3">
          <mxGeometry width="50" height="50" relative="1" as="geometry">
            <mxPoint x="390" y="320" as="sourcePoint" />
            <mxPoint x="440" y="270" as="targetPoint" />
          </mxGeometry>
        </mxCell>
        <mxCell id="qN2a7-wlCZaR_5KQ552V-9" value="data de nascimento" style="ellipse;whiteSpace=wrap;html=1;" vertex="1" parent="WIyWlLk6GJQsqaUBKTNV-1">
          <mxGeometry x="-30" y="270" width="70" height="50" as="geometry" />
        </mxCell>
        <mxCell id="qN2a7-wlCZaR_5KQ552V-10" value="" style="endArrow=none;html=1;rounded=0;entryX=0.415;entryY=0.975;entryDx=0;entryDy=0;entryPerimeter=0;" edge="1" parent="WIyWlLk6GJQsqaUBKTNV-1" source="qN2a7-wlCZaR_5KQ552V-9" target="WIyWlLk6GJQsqaUBKTNV-3">
          <mxGeometry width="50" height="50" relative="1" as="geometry">
            <mxPoint x="420" y="340" as="sourcePoint" />
            <mxPoint x="152" y="190" as="targetPoint" />
          </mxGeometry>
        </mxCell>
        <mxCell id="qN2a7-wlCZaR_5KQ552V-11" value="nome completo" style="ellipse;whiteSpace=wrap;html=1;" vertex="1" parent="WIyWlLk6GJQsqaUBKTNV-1">
          <mxGeometry x="-60" y="220" width="70" height="50" as="geometry" />
        </mxCell>
        <mxCell id="qN2a7-wlCZaR_5KQ552V-12" value="" style="endArrow=none;html=1;rounded=0;entryX=0.25;entryY=1;entryDx=0;entryDy=0;" edge="1" parent="WIyWlLk6GJQsqaUBKTNV-1" source="qN2a7-wlCZaR_5KQ552V-11" target="WIyWlLk6GJQsqaUBKTNV-3">
          <mxGeometry width="50" height="50" relative="1" as="geometry">
            <mxPoint x="410" y="340" as="sourcePoint" />
            <mxPoint x="110" y="190" as="targetPoint" />
          </mxGeometry>
        </mxCell>
        <mxCell id="qN2a7-wlCZaR_5KQ552V-13" value="morada" style="ellipse;whiteSpace=wrap;html=1;" vertex="1" parent="WIyWlLk6GJQsqaUBKTNV-1">
          <mxGeometry x="40" y="290" width="70" height="50" as="geometry" />
        </mxCell>
        <mxCell id="qN2a7-wlCZaR_5KQ552V-14" value="" style="endArrow=none;html=1;rounded=0;entryX=0.5;entryY=1;entryDx=0;entryDy=0;" edge="1" parent="WIyWlLk6GJQsqaUBKTNV-1" source="qN2a7-wlCZaR_5KQ552V-13" target="WIyWlLk6GJQsqaUBKTNV-3">
          <mxGeometry width="50" height="50" relative="1" as="geometry">
            <mxPoint x="420" y="350" as="sourcePoint" />
            <mxPoint x="152" y="200" as="targetPoint" />
          </mxGeometry>
        </mxCell>
        <mxCell id="qN2a7-wlCZaR_5KQ552V-15" value="email" style="ellipse;whiteSpace=wrap;html=1;" vertex="1" parent="WIyWlLk6GJQsqaUBKTNV-1">
          <mxGeometry x="115" y="300" width="70" height="50" as="geometry" />
        </mxCell>
        <mxCell id="qN2a7-wlCZaR_5KQ552V-16" value="" style="endArrow=none;html=1;rounded=0;entryX=0.5;entryY=1;entryDx=0;entryDy=0;" edge="1" parent="WIyWlLk6GJQsqaUBKTNV-1" source="qN2a7-wlCZaR_5KQ552V-15" target="WIyWlLk6GJQsqaUBKTNV-3">
          <mxGeometry width="50" height="50" relative="1" as="geometry">
            <mxPoint x="430" y="360" as="sourcePoint" />
            <mxPoint x="162" y="210" as="targetPoint" />
          </mxGeometry>
        </mxCell>
        <mxCell id="qN2a7-wlCZaR_5KQ552V-17" value="telemÃ³vel" style="ellipse;whiteSpace=wrap;html=1;" vertex="1" parent="WIyWlLk6GJQsqaUBKTNV-1">
          <mxGeometry x="185" y="290" width="70" height="50" as="geometry" />
        </mxCell>
        <mxCell id="qN2a7-wlCZaR_5KQ552V-18" value="" style="endArrow=none;html=1;rounded=0;" edge="1" parent="WIyWlLk6GJQsqaUBKTNV-1" source="qN2a7-wlCZaR_5KQ552V-17" target="WIyWlLk6GJQsqaUBKTNV-3">
          <mxGeometry width="50" height="50" relative="1" as="geometry">
            <mxPoint x="460" y="400" as="sourcePoint" />
            <mxPoint x="192" y="250" as="targetPoint" />
          </mxGeometry>
        </mxCell>
        <mxCell id="qN2a7-wlCZaR_5KQ552V-19" style="edgeStyle=orthogonalEdgeStyle;rounded=0;orthogonalLoop=1;jettySize=auto;html=1;exitX=0.5;exitY=1;exitDx=0;exitDy=0;" edge="1" parent="WIyWlLk6GJQsqaUBKTNV-1" source="qN2a7-wlCZaR_5KQ552V-9" target="qN2a7-wlCZaR_5KQ552V-9">
          <mxGeometry relative="1" as="geometry" />
        </mxCell>
        <mxCell id="qN2a7-wlCZaR_5KQ552V-21" value="1" style="text;html=1;align=center;verticalAlign=middle;resizable=0;points=[];autosize=1;strokeColor=none;fillColor=none;" vertex="1" parent="WIyWlLk6GJQsqaUBKTNV-1">
          <mxGeometry x="635" y="175" width="30" height="30" as="geometry" />
        </mxCell>
        <mxCell id="qN2a7-wlCZaR_5KQ552V-22" value="N" style="text;html=1;align=center;verticalAlign=middle;resizable=0;points=[];autosize=1;strokeColor=none;fillColor=none;" vertex="1" parent="WIyWlLk6GJQsqaUBKTNV-1">
          <mxGeometry x="635" y="300" width="30" height="30" as="geometry" />
        </mxCell>
        <mxCell id="qN2a7-wlCZaR_5KQ552V-23" value="Tem" style="rhombus;whiteSpace=wrap;html=1;" vertex="1" parent="WIyWlLk6GJQsqaUBKTNV-1">
          <mxGeometry x="580" y="205" width="80" height="80" as="geometry" />
        </mxCell>
        <mxCell id="qN2a7-wlCZaR_5KQ552V-24" value="" style="endArrow=none;html=1;rounded=0;entryX=0.5;entryY=1;entryDx=0;entryDy=0;exitX=0.5;exitY=0;exitDx=0;exitDy=0;" edge="1" parent="WIyWlLk6GJQsqaUBKTNV-1" source="qN2a7-wlCZaR_5KQ552V-23" target="qN2a7-wlCZaR_5KQ552V-2">
          <mxGeometry width="50" height="50" relative="1" as="geometry">
            <mxPoint x="390" y="360" as="sourcePoint" />
            <mxPoint x="440" y="310" as="targetPoint" />
          </mxGeometry>
        </mxCell>
        <mxCell id="qN2a7-wlCZaR_5KQ552V-25" value="" style="endArrow=none;html=1;rounded=0;entryX=0.5;entryY=0;entryDx=0;entryDy=0;exitX=0.5;exitY=1;exitDx=0;exitDy=0;" edge="1" parent="WIyWlLk6GJQsqaUBKTNV-1" source="qN2a7-wlCZaR_5KQ552V-23" target="qN2a7-wlCZaR_5KQ552V-1">
          <mxGeometry width="50" height="50" relative="1" as="geometry">
            <mxPoint x="630" y="215" as="sourcePoint" />
            <mxPoint x="630" y="180" as="targetPoint" />
          </mxGeometry>
        </mxCell>
        <mxCell id="qN2a7-wlCZaR_5KQ552V-26" value="Inscrito" style="rhombus;whiteSpace=wrap;html=1;" vertex="1" parent="WIyWlLk6GJQsqaUBKTNV-1">
          <mxGeometry x="350" y="110" width="80" height="80" as="geometry" />
        </mxCell>
        <mxCell id="qN2a7-wlCZaR_5KQ552V-27" value="" style="endArrow=none;html=1;rounded=0;entryX=1;entryY=0.5;entryDx=0;entryDy=0;exitX=0;exitY=0.5;exitDx=0;exitDy=0;" edge="1" parent="WIyWlLk6GJQsqaUBKTNV-1" source="qN2a7-wlCZaR_5KQ552V-26" target="WIyWlLk6GJQsqaUBKTNV-3">
          <mxGeometry width="50" height="50" relative="1" as="geometry">
            <mxPoint x="390" y="360" as="sourcePoint" />
            <mxPoint x="440" y="310" as="targetPoint" />
          </mxGeometry>
        </mxCell>
        <mxCell id="qN2a7-wlCZaR_5KQ552V-28" value="" style="endArrow=none;html=1;rounded=0;entryX=0;entryY=0.5;entryDx=0;entryDy=0;exitX=1;exitY=0.5;exitDx=0;exitDy=0;" edge="1" parent="WIyWlLk6GJQsqaUBKTNV-1" source="qN2a7-wlCZaR_5KQ552V-26" target="qN2a7-wlCZaR_5KQ552V-2">
          <mxGeometry width="50" height="50" relative="1" as="geometry">
            <mxPoint x="360" y="160" as="sourcePoint" />
            <mxPoint x="220" y="160" as="targetPoint" />
          </mxGeometry>
        </mxCell>
        <mxCell id="qN2a7-wlCZaR_5KQ552V-29" value="1" style="text;html=1;align=center;verticalAlign=middle;resizable=0;points=[];autosize=1;strokeColor=none;fillColor=none;" vertex="1" parent="WIyWlLk6GJQsqaUBKTNV-1">
          <mxGeometry x="530" y="120" width="30" height="30" as="geometry" />
        </mxCell>
        <mxCell id="qN2a7-wlCZaR_5KQ552V-30" value="1" style="text;html=1;align=center;verticalAlign=middle;resizable=0;points=[];autosize=1;strokeColor=none;fillColor=none;" vertex="1" parent="WIyWlLk6GJQsqaUBKTNV-1">
          <mxGeometry x="210" y="120" width="30" height="30" as="geometry" />
        </mxCell>
        <mxCell id="qN2a7-wlCZaR_5KQ552V-32" value="diretor" style="ellipse;whiteSpace=wrap;html=1;" vertex="1" parent="WIyWlLk6GJQsqaUBKTNV-1">
          <mxGeometry x="610" y="30" width="70" height="50" as="geometry" />
        </mxCell>
        <mxCell id="qN2a7-wlCZaR_5KQ552V-33" value="" style="endArrow=none;html=1;rounded=0;entryX=0.75;entryY=0;entryDx=0;entryDy=0;" edge="1" parent="WIyWlLk6GJQsqaUBKTNV-1" source="qN2a7-wlCZaR_5KQ552V-32" target="qN2a7-wlCZaR_5KQ552V-2">
          <mxGeometry width="50" height="50" relative="1" as="geometry">
            <mxPoint x="652" y="550" as="sourcePoint" />
            <mxPoint x="350" y="320" as="targetPoint" />
          </mxGeometry>
        </mxCell>
        <mxCell id="qN2a7-wlCZaR_5KQ552V-34" value="departamento" style="ellipse;whiteSpace=wrap;html=1;" vertex="1" parent="WIyWlLk6GJQsqaUBKTNV-1">
          <mxGeometry x="680" y="40" width="80" height="70" as="geometry" />
        </mxCell>
        <mxCell id="qN2a7-wlCZaR_5KQ552V-35" value="" style="endArrow=none;html=1;rounded=0;entryX=1;entryY=0.5;entryDx=0;entryDy=0;" edge="1" parent="WIyWlLk6GJQsqaUBKTNV-1" source="qN2a7-wlCZaR_5KQ552V-34" target="qN2a7-wlCZaR_5KQ552V-2">
          <mxGeometry width="50" height="50" relative="1" as="geometry">
            <mxPoint x="557" y="590" as="sourcePoint" />
            <mxPoint x="255" y="360" as="targetPoint" />
          </mxGeometry>
        </mxCell>
        <mxCell id="qN2a7-wlCZaR_5KQ552V-36" value="curso_id" style="ellipse;whiteSpace=wrap;html=1;" vertex="1" parent="WIyWlLk6GJQsqaUBKTNV-1">
          <mxGeometry x="540" y="30" width="70" height="50" as="geometry" />
        </mxCell>
        <mxCell id="qN2a7-wlCZaR_5KQ552V-37" value="" style="endArrow=none;html=1;rounded=0;entryX=0.5;entryY=0;entryDx=0;entryDy=0;" edge="1" parent="WIyWlLk6GJQsqaUBKTNV-1" source="qN2a7-wlCZaR_5KQ552V-36" target="qN2a7-wlCZaR_5KQ552V-2">
          <mxGeometry width="50" height="50" relative="1" as="geometry">
            <mxPoint x="445" y="610" as="sourcePoint" />
            <mxPoint x="143" y="380" as="targetPoint" />
          </mxGeometry>
        </mxCell>
        <mxCell id="qN2a7-wlCZaR_5KQ552V-38" value="nome" style="ellipse;whiteSpace=wrap;html=1;" vertex="1" parent="WIyWlLk6GJQsqaUBKTNV-1">
          <mxGeometry x="740" y="130" width="70" height="50" as="geometry" />
        </mxCell>
        <mxCell id="qN2a7-wlCZaR_5KQ552V-39" value="" style="endArrow=none;html=1;rounded=0;entryX=1;entryY=0.75;entryDx=0;entryDy=0;" edge="1" parent="WIyWlLk6GJQsqaUBKTNV-1" source="qN2a7-wlCZaR_5KQ552V-38" target="qN2a7-wlCZaR_5KQ552V-2">
          <mxGeometry width="50" height="50" relative="1" as="geometry">
            <mxPoint x="679" y="620" as="sourcePoint" />
            <mxPoint x="377" y="390" as="targetPoint" />
          </mxGeometry>
        </mxCell>
        <mxCell id="qN2a7-wlCZaR_5KQ552V-42" value="disciplina_id" style="ellipse;whiteSpace=wrap;html=1;" vertex="1" parent="WIyWlLk6GJQsqaUBKTNV-1">
          <mxGeometry x="490" y="390" width="70" height="50" as="geometry" />
        </mxCell>
        <mxCell id="qN2a7-wlCZaR_5KQ552V-43" value="" style="endArrow=none;html=1;rounded=0;entryX=0.25;entryY=1;entryDx=0;entryDy=0;" edge="1" parent="WIyWlLk6GJQsqaUBKTNV-1" source="qN2a7-wlCZaR_5KQ552V-42" target="qN2a7-wlCZaR_5KQ552V-1">
          <mxGeometry width="50" height="50" relative="1" as="geometry">
            <mxPoint x="279" y="870" as="sourcePoint" />
            <mxPoint x="454" y="390" as="targetPoint" />
          </mxGeometry>
        </mxCell>
        <mxCell id="qN2a7-wlCZaR_5KQ552V-44" value="nome" style="ellipse;whiteSpace=wrap;html=1;" vertex="1" parent="WIyWlLk6GJQsqaUBKTNV-1">
          <mxGeometry x="520" y="450" width="70" height="50" as="geometry" />
        </mxCell>
        <mxCell id="qN2a7-wlCZaR_5KQ552V-45" value="" style="endArrow=none;html=1;rounded=0;entryX=0.378;entryY=0.975;entryDx=0;entryDy=0;entryPerimeter=0;" edge="1" parent="WIyWlLk6GJQsqaUBKTNV-1" source="qN2a7-wlCZaR_5KQ552V-44" target="qN2a7-wlCZaR_5KQ552V-1">
          <mxGeometry width="50" height="50" relative="1" as="geometry">
            <mxPoint x="375" y="940" as="sourcePoint" />
            <mxPoint x="550" y="460" as="targetPoint" />
          </mxGeometry>
        </mxCell>
        <mxCell id="qN2a7-wlCZaR_5KQ552V-46" value="idioma" style="ellipse;whiteSpace=wrap;html=1;" vertex="1" parent="WIyWlLk6GJQsqaUBKTNV-1">
          <mxGeometry x="665" y="430" width="70" height="50" as="geometry" />
        </mxCell>
        <mxCell id="qN2a7-wlCZaR_5KQ552V-47" value="" style="endArrow=none;html=1;rounded=0;entryX=0.75;entryY=1;entryDx=0;entryDy=0;" edge="1" parent="WIyWlLk6GJQsqaUBKTNV-1" source="qN2a7-wlCZaR_5KQ552V-46" target="qN2a7-wlCZaR_5KQ552V-1">
          <mxGeometry width="50" height="50" relative="1" as="geometry">
            <mxPoint x="295" y="990" as="sourcePoint" />
            <mxPoint x="470" y="510" as="targetPoint" />
          </mxGeometry>
        </mxCell>
        <mxCell id="qN2a7-wlCZaR_5KQ552V-48" value="crÃ©ditos" style="ellipse;whiteSpace=wrap;html=1;" vertex="1" parent="WIyWlLk6GJQsqaUBKTNV-1">
          <mxGeometry x="585" y="480" width="70" height="50" as="geometry" />
        </mxCell>
        <mxCell id="qN2a7-wlCZaR_5KQ552V-49" value="" style="endArrow=none;html=1;rounded=0;entryX=0.5;entryY=1;entryDx=0;entryDy=0;" edge="1" parent="WIyWlLk6GJQsqaUBKTNV-1" source="qN2a7-wlCZaR_5KQ552V-48" target="qN2a7-wlCZaR_5KQ552V-1">
          <mxGeometry width="50" height="50" relative="1" as="geometry">
            <mxPoint x="465" y="1020" as="sourcePoint" />
            <mxPoint x="640" y="540" as="targetPoint" />
          </mxGeometry>
        </mxCell>
      </root>
    </mxGraphModel>
  </diagram>
</mxfile>
